<svg width="42" height="45" viewBox="0 0 42 45" fill="none" xmlns="http://www.w3.org/2000/svg">
<path d="M20.8333 17.6316C23.0435 17.6316 25.1631 16.7028 26.7259 15.0495C28.2887 13.3962 29.1667 11.1539 29.1667 8.81579C29.1667 6.4777 28.2887 4.23537 26.7259 2.58209C25.1631 0.928804 23.0435 0 20.8333 0C18.6232 0 16.5036 0.928804 14.9408 2.58209C13.378 4.23537 12.5 6.4777 12.5 8.81579C12.5 11.1539 13.378 13.3962 14.9408 15.0495C16.5036 16.7028 18.6232 17.6316 20.8333 17.6316ZM7.29167 24.2434C8.673 24.2434 9.99776 23.6629 10.9745 22.6296C11.9513 21.5963 12.5 20.1949 12.5 18.7336C12.5 17.2722 11.9513 15.8708 10.9745 14.8375C9.99776 13.8042 8.673 13.2237 7.29167 13.2237C5.91033 13.2237 4.58557 13.8042 3.60882 14.8375C2.63207 15.8708 2.08333 17.2722 2.08333 18.7336C2.08333 20.1949 2.63207 21.5963 3.60882 22.6296C4.58557 23.6629 5.91033 24.2434 7.29167 24.2434ZM39.5833 18.7336C39.5833 20.1949 39.0346 21.5963 38.0578 22.6296C37.0811 23.6629 35.7563 24.2434 34.375 24.2434C32.9937 24.2434 31.6689 23.6629 30.6922 22.6296C29.7154 21.5963 29.1667 20.1949 29.1667 18.7336C29.1667 17.2722 29.7154 15.8708 30.6922 14.8375C31.6689 13.8042 32.9937 13.2237 34.375 13.2237C35.7563 13.2237 37.0811 13.8042 38.0578 14.8375C39.0346 15.8708 39.5833 17.2722 39.5833 18.7336ZM20.8333 19.8355C23.596 19.8355 26.2455 20.9965 28.199 23.0631C30.1525 25.1297 31.25 27.9326 31.25 30.8553V44.0789H10.4167V30.8553C10.4167 27.9326 11.5141 25.1297 13.4676 23.0631C15.4211 20.9965 18.0707 19.8355 20.8333 19.8355ZM6.25 30.8553C6.25 29.3279 6.45833 27.8535 6.85 26.4606L6.49583 26.4915C4.71016 26.6989 3.05972 27.5963 1.86096 29.0117C0.662212 30.4271 -0.000466164 32.2608 2.46037e-07 34.1612V44.0789H6.25V30.8553ZM41.6667 44.0789V34.1612C41.6669 32.1961 40.9582 30.305 39.6852 28.8739C38.4121 27.4428 36.6708 26.5796 34.8167 26.4606C35.2063 27.8535 35.4167 29.3279 35.4167 30.8553V44.0789H41.6667Z" fill="#007AFF"/>
</svg>
