<svg width="35" height="42" viewBox="0 0 35 42" fill="none" xmlns="http://www.w3.org/2000/svg">
<path d="M26.25 15.4737C26.25 27.2558 8.75 27.2558 8.75 15.4737H13.125C13.125 21.3758 21.875 21.3758 21.875 15.4737M35 35.3684V42H0V35.3684C0 29.4663 11.6594 26.5263 17.5 26.5263C23.3406 26.5263 35 29.4663 35 35.3684ZM30.8438 35.3684C30.8438 33.9537 23.9969 30.7263 17.5 30.7263C11.0031 30.7263 4.15625 33.9537 4.15625 35.3684V37.8H30.8438M18.5938 0C19.2062 0 19.6875 0.486316 19.6875 1.10526V7.73684H21.875V2.21053C23.4231 2.93453 24.7202 4.11201 25.5978 5.59017C26.4755 7.06833 26.8932 8.77893 26.7969 10.5C26.7969 10.5 28.3281 10.8095 28.4375 13.2632H6.5625C6.5625 10.8095 8.20312 10.5 8.20312 10.5C8.10677 8.77893 8.52453 7.06833 9.40218 5.59017C10.2798 4.11201 11.5769 2.93453 13.125 2.21053V7.73684H15.3125V1.10526C15.3125 0.486316 15.7937 0 16.4062 0" fill="#FF7F00"/>
</svg>
